<?xml version="1.0" encoding="UTF-8" standalone="no"?>
<!-- Created with Inkscape (http://www.inkscape.org/) -->

<svg
   width="10.16mm"
   height="128.5mm"
   viewBox="0 0 10.16 128.5"
   version="1.1"
   id="svg1"
   inkscape:version="1.4.2 (ebf0e940, 2025-05-08)"
   sodipodi:docname="cascadeLFO.svg"
   xmlns:inkscape="http://www.inkscape.org/namespaces/inkscape"
   xmlns:sodipodi="http://sodipodi.sourceforge.net/DTD/sodipodi-0.dtd"
   xmlns="http://www.w3.org/2000/svg"
   xmlns:svg="http://www.w3.org/2000/svg">
  <sodipodi:namedview
     id="namedview1"
     pagecolor="#505050"
     bordercolor="#eeeeee"
     borderopacity="1"
     inkscape:showpageshadow="0"
     inkscape:pageopacity="0"
     inkscape:pagecheckerboard="0"
     inkscape:deskcolor="#505050"
     inkscape:document-units="mm"
     inkscape:zoom="1.4823793"
     inkscape:cx="124.46207"
     inkscape:cy="247.23766"
     inkscape:window-width="2560"
     inkscape:window-height="1440"
     inkscape:window-x="0"
     inkscape:window-y="0"
     inkscape:window-maximized="0"
     inkscape:current-layer="layer2"
     showguides="true" />
  <defs
     id="defs1" />
  <rect
     style="display:inline;fill:#ffffff;stroke-width:0.265284"
     id="rect1"
     width="10.191324"
     height="128.46527"
     x="0.0054133204"
     y="0.044621423" />
  <path
     d="m 3.9676291,60.642521 q 0,0.282154 -0.1446942,0.445451 -0.1446942,0.163298 -0.3875738,0.163298 -0.2449467,0 -0.3896409,-0.163298 -0.1436607,-0.163297 -0.1436607,-0.445451 0,-0.282154 0.1436607,-0.445452 0.1446942,-0.164331 0.3896409,-0.164331 0.2428796,0 0.3875738,0.164331 0.1446942,0.163298 0.1446942,0.445452 z m -0.2005048,0 q 0,-0.224276 -0.08785,-0.332797 -0.08785,-0.109554 -0.2439131,-0.109554 -0.1581302,0 -0.2459802,0.109554 -0.086817,0.108521 -0.086817,0.332797 0,0.217041 0.08785,0.329696 0.08785,0.111621 0.2449467,0.111621 0.1550295,0 0.2428796,-0.110588 0.088884,-0.111621 0.088884,-0.330729 z m 1.4583111,0.57671 H 5.0311318 v -0.128158 q -0.098185,0.07751 -0.1881025,0.118856 -0.089917,0.04134 -0.1984378,0.04134 -0.1819014,0 -0.2831873,-0.110588 -0.101286,-0.111621 -0.101286,-0.326595 v -0.74931 h 0.1943037 v 0.657326 q 0,0.08785 0.00827,0.150895 0.00827,0.06201 0.03514,0.106454 0.027905,0.04547 0.072347,0.06615 0.044442,0.02067 0.1291913,0.02067 0.075448,0 0.1643313,-0.03927 0.089917,-0.03927 0.1674319,-0.100252 v -0.861965 h 0.1943036 z m 0.9818536,-0.01034 q -0.054777,0.01447 -0.1198895,0.02377 -0.064079,0.0093 -0.1147219,0.0093 -0.1767336,0 -0.2687178,-0.09508 -0.091984,-0.09508 -0.091984,-0.304892 V 60.228075 H 5.4807172 v -0.163298 h 0.1312584 v -0.331763 h 0.1943037 v 0.331763 H 6.207289 v 0.163298 H 5.8062793 v 0.526067 q 0,0.09095 0.00413,0.142627 0.00413,0.05064 0.028939,0.09508 0.022738,0.04134 0.062012,0.06098 0.040308,0.0186 0.1219566,0.0186 0.047542,0 0.099219,-0.01344 0.051677,-0.01447 0.074414,-0.02377 h 0.010335 z m 1.1637551,0.01034 H 6.5380188 V 61.062134 H 6.8584131 V 60.030671 H 6.5380188 v -0.14056 q 0.065112,0 0.1395266,-0.01034 0.074414,-0.01137 0.1126547,-0.03204 0.047542,-0.02584 0.074414,-0.06511 0.027905,-0.04031 0.032039,-0.107487 h 0.1601971 v 1.386997 h 0.3141932 z"
     id="text11-8"
     style="font-size:2.11667px;stroke-width:0.264583"
     aria-label="out1" />
  <g
     inkscape:label="Layer 1"
     inkscape:groupmode="layer"
     id="layer1"
     style="display:inline">
    <path
       d="m 8.6535887,22.524647 h -0.612566 v 0.591997 H 7.8544431 v -0.591997 h -0.612566 v -0.173796 h 0.612566 v -0.591996 h 0.1865796 v 0.591996 h 0.612566 z"
       id="text5"
       style="font-size:2.26292px;stroke-width:0.188576"
       aria-label="+" />
    <path
       d="m 8.9230498,38.756497 h -0.612566 v 0.591997 h -0.18658 v -0.591997 h -0.612566 v -0.173796 h 0.612566 v -0.591996 h 0.18658 v 0.591996 h 0.612566 z"
       id="text5-5"
       style="font-size:2.26292px;display:inline;stroke-width:0.188576"
       aria-label="+" />
    <path
       d="M 2.7217051,22.690377 H 1.7543223 v -0.280603 h 0.9673828 z"
       id="text6"
       style="font-size:3.175px;stroke-width:0.264583"
       aria-label="-" />
    <path
       d="M 2.6409805,39.012374 H 1.6735977 v -0.280603 h 0.9673828 z"
       id="text6-2"
       style="font-size:3.175px;display:inline;stroke-width:0.264583"
       aria-label="-" />
    <path
       d="m 4.2093784,75.458141 q 0,0.282154 -0.1446942,0.445452 -0.1446942,0.163298 -0.3875739,0.163298 -0.2449466,0 -0.3896408,-0.163298 -0.1436607,-0.163298 -0.1436607,-0.445452 0,-0.282154 0.1436607,-0.445451 0.1446942,-0.164332 0.3896408,-0.164332 0.2428797,0 0.3875739,0.164332 0.1446942,0.163297 0.1446942,0.445451 z m -0.2005049,0 q 0,-0.224276 -0.08785,-0.332797 -0.08785,-0.109554 -0.2439132,-0.109554 -0.1581301,0 -0.2459801,0.109554 -0.086817,0.108521 -0.086817,0.332797 0,0.217042 0.08785,0.329696 0.08785,0.111622 0.2449466,0.111622 0.1550296,0 0.2428797,-0.110588 0.088884,-0.111621 0.088884,-0.33073 z m 1.4583112,0.57671 H 5.272881 v -0.128158 q -0.098185,0.07751 -0.1881025,0.118856 -0.089917,0.04134 -0.1984378,0.04134 -0.1819013,0 -0.2831872,-0.110588 -0.101286,-0.111621 -0.101286,-0.326596 v -0.749309 h 0.1943037 v 0.657325 q 0,0.08785 0.00827,0.150895 0.00827,0.06201 0.03514,0.106454 0.027905,0.04547 0.072347,0.06615 0.044442,0.02067 0.1291912,0.02067 0.075448,0 0.1643314,-0.03928 0.089917,-0.03927 0.1674318,-0.100252 v -0.861964 h 0.1943037 z m 0.9818536,-0.01033 q -0.054777,0.01447 -0.1198895,0.02377 -0.064079,0.0093 -0.1147219,0.0093 -0.1767336,0 -0.2687178,-0.09508 -0.091984,-0.09508 -0.091984,-0.304891 V 75.043696 H 5.7224665 v -0.163298 h 0.1312584 v -0.331763 h 0.1943037 v 0.331763 h 0.4010097 v 0.163298 H 6.0480286 v 0.526066 q 0,0.09095 0.00413,0.142628 0.00413,0.05064 0.028939,0.09508 0.022738,0.04134 0.062012,0.06098 0.040308,0.0186 0.1219566,0.0186 0.047542,0 0.099219,-0.01344 0.051677,-0.01447 0.074414,-0.02377 h 0.010335 z m 1.2516052,0.01033 H 6.658845 v -0.216008 q 0.1085207,-0.09302 0.2170414,-0.186035 0.1095542,-0.09302 0.2036054,-0.185002 0.1984378,-0.192237 0.2718185,-0.304892 0.073381,-0.113688 0.073381,-0.244946 0,-0.11989 -0.079582,-0.187069 -0.078548,-0.06821 -0.2201419,-0.06821 -0.094051,0 -0.2036055,0.03307 -0.1095542,0.03307 -0.2139408,0.101286 h -0.010335 v -0.217042 q 0.073381,-0.03617 0.1953373,-0.06614 0.1229901,-0.02997 0.2377119,-0.02997 0.2366784,0 0.3710374,0.114722 0.1343589,0.113688 0.1343589,0.309026 0,0.08785 -0.022738,0.164331 -0.021704,0.07545 -0.065112,0.143661 -0.040308,0.06408 -0.095085,0.12609 -0.053744,0.06201 -0.1312583,0.13746 -0.1105877,0.10852 -0.2284102,0.21084 -0.1178224,0.101286 -0.2201419,0.188102 h 0.8278577 z"
       id="text13"
       style="font-size:2.11667px;stroke-width:0.264583"
       aria-label="out2&#10;" />
  </g>
  <g
     inkscape:groupmode="layer"
     id="layer2"
     inkscape:label="components"
     style="display:inline">
    <circle
       style="display:inline;fill:#0000ff;fill-opacity:1;stroke-width:0.211072"
       id="out1"
       cx="5.1955433"
       cy="65.589928"
       r="3.168119"
       inkscape:label="out1" />
    <circle
       style="display:inline;fill:#0000ff;fill-opacity:1;stroke-width:0.211072"
       id="path6-5-1-1"
       cx="5.1735277"
       cy="80.589996"
       r="3.168119"
       inkscape:label="out2" />
    <path
       d="m 4.3080563,90.303509 q 0,0.282153 -0.1446942,0.445451 -0.1446943,0.163298 -0.3875739,0.163298 -0.2449466,0 -0.3896409,-0.163298 -0.1436607,-0.163298 -0.1436607,-0.445451 0,-0.282154 0.1436607,-0.445452 0.1446943,-0.164331 0.3896409,-0.164331 0.2428796,0 0.3875739,0.164331 0.1446942,0.163298 0.1446942,0.445452 z m -0.2005049,0 q 0,-0.224276 -0.08785,-0.332797 -0.08785,-0.109554 -0.2439132,-0.109554 -0.1581301,0 -0.2459802,0.109554 -0.086816,0.108521 -0.086816,0.332797 0,0.217041 0.08785,0.329696 0.08785,0.111621 0.2449466,0.111621 0.1550296,0 0.2428796,-0.110588 0.088884,-0.111621 0.088884,-0.330729 z m 1.4583112,0.57671 H 5.3715589 v -0.128158 q -0.098185,0.07752 -0.1881025,0.118856 -0.089917,0.04134 -0.1984378,0.04134 -0.1819013,0 -0.2831873,-0.110588 -0.1012859,-0.111621 -0.1012859,-0.326595 v -0.74931 h 0.1943037 v 0.657325 q 0,0.08785 0.00827,0.150896 0.00827,0.06201 0.03514,0.106453 0.027905,0.04548 0.072347,0.06615 0.044442,0.02067 0.1291913,0.02067 0.075448,0 0.1643313,-0.03927 0.089917,-0.03927 0.1674319,-0.100253 v -0.861964 h 0.1943037 z m 0.9818536,-0.01034 q -0.054777,0.01447 -0.1198896,0.02377 -0.064079,0.0093 -0.1147218,0.0093 -0.1767337,0 -0.2687179,-0.09508 -0.091984,-0.09508 -0.091984,-0.304891 V 89.889063 H 5.8211444 v -0.163298 h 0.1312583 v -0.331763 h 0.1943037 v 0.331763 h 0.4010098 v 0.163298 H 6.1467064 v 0.526067 q 0,0.09095 0.00413,0.142627 0.00413,0.05064 0.028939,0.09509 0.022738,0.04134 0.062012,0.06098 0.040308,0.0186 0.1219566,0.0186 0.047542,0 0.099219,-0.01344 0.051677,-0.01447 0.074414,-0.02377 h 0.010335 z m 1.1162127,-0.730706 q 0.049609,0.04444 0.081649,0.111622 0.032039,0.06718 0.032039,0.173633 0,0.10542 -0.038241,0.19327 -0.038241,0.08785 -0.1074871,0.152962 -0.077515,0.07235 -0.1829349,0.107487 -0.1043865,0.03411 -0.2294437,0.03411 -0.1281577,0 -0.2521814,-0.03101 -0.1240236,-0.02997 -0.2036054,-0.06615 v -0.216008 h 0.015503 q 0.08785,0.05788 0.2067061,0.09612 0.118856,0.03824 0.2294437,0.03824 0.065112,0 0.138493,-0.0217 0.073381,-0.0217 0.118856,-0.06408 0.047542,-0.04547 0.07028,-0.100252 0.023771,-0.05478 0.023771,-0.138493 0,-0.08268 -0.026872,-0.136426 -0.025838,-0.05478 -0.072347,-0.08578 -0.046509,-0.03204 -0.1126548,-0.04341 -0.066146,-0.0124 -0.1426272,-0.0124 h -0.093018 v -0.171566 h 0.072347 q 0.1570966,0 0.2501143,-0.06511 0.094051,-0.06615 0.094051,-0.192237 0,-0.05581 -0.023771,-0.09715 -0.023771,-0.04238 -0.066146,-0.06925 -0.044442,-0.02687 -0.095085,-0.03721 -0.050643,-0.01034 -0.1147218,-0.01034 -0.098185,0 -0.2087731,0.03514 -0.1105877,0.03514 -0.2087731,0.09922 h -0.010335 v -0.216008 q 0.073381,-0.03617 0.1953372,-0.06615 0.1229901,-0.03101 0.2377119,-0.03101 0.1126548,0 0.1984378,0.02067 0.085783,0.02067 0.1550296,0.06615 0.074414,0.04961 0.1126548,0.11989 0.038241,0.07028 0.038241,0.164331 0,0.128158 -0.090951,0.224276 -0.089917,0.09508 -0.2129072,0.119889 v 0.01447 q 0.049609,0.0083 0.1136883,0.03514 0.064079,0.02584 0.1085207,0.06511 z"
       id="text13-7"
       style="font-size:2.11667px;stroke-width:0.264583"
       aria-label="out3&#10;" />
    <circle
       style="display:inline;fill:#0000ff;fill-opacity:1;stroke-width:0.211072"
       id="path6-5-1-1-0"
       cx="5.2722058"
       cy="95.435364"
       r="3.168119"
       inkscape:label="out3" />
    <path
       d="m 4.2219581,106.29605 q 0,0.28215 -0.1446942,0.44545 -0.1446943,0.1633 -0.3875739,0.1633 -0.2449466,0 -0.3896409,-0.1633 -0.1436607,-0.1633 -0.1436607,-0.44545 0,-0.28216 0.1436607,-0.44545 0.1446943,-0.16434 0.3896409,-0.16434 0.2428796,0 0.3875739,0.16434 0.1446942,0.16329 0.1446942,0.44545 z m -0.2005049,0 q 0,-0.22428 -0.08785,-0.3328 -0.08785,-0.10955 -0.2439132,-0.10955 -0.1581301,0 -0.2459802,0.10955 -0.086817,0.10852 -0.086817,0.3328 0,0.21704 0.08785,0.32969 0.08785,0.11162 0.2449466,0.11162 0.1550296,0 0.2428796,-0.11058 0.088884,-0.11162 0.088884,-0.33073 z m 1.4583112,0.57671 H 5.2854607 v -0.12816 q -0.098185,0.0775 -0.1881025,0.11886 -0.089917,0.0413 -0.1984378,0.0413 -0.1819013,0 -0.2831873,-0.11059 -0.1012859,-0.11162 -0.1012859,-0.3266 v -0.74931 h 0.1943037 v 0.65733 q 0,0.0879 0.00827,0.15089 0.00827,0.062 0.03514,0.10646 0.027905,0.0455 0.072347,0.0661 0.044442,0.0207 0.1291913,0.0207 0.075448,0 0.1643313,-0.0393 0.089917,-0.0393 0.1674319,-0.10025 v -0.86197 h 0.1943037 z m 0.9818536,-0.0103 q -0.054777,0.0145 -0.1198895,0.0238 -0.064079,0.009 -0.1147219,0.009 -0.1767337,0 -0.2687179,-0.0951 -0.091984,-0.0951 -0.091984,-0.30489 V 105.8816 H 5.7350462 v -0.1633 h 0.1312584 v -0.33176 h 0.1943036 v 0.33176 H 6.461618 v 0.1633 H 6.0606082 v 0.52607 q 0,0.091 0.00413,0.14263 0.00413,0.0506 0.028939,0.0951 0.022738,0.0413 0.062012,0.061 0.040308,0.0186 0.1219566,0.0186 0.047542,0 0.099219,-0.0134 0.051677,-0.0145 0.074414,-0.0238 h 0.010335 z m 1.2867452,-0.42271 H 7.519953 v 0.43305 H 7.3215152 v -0.43305 H 6.5846082 V 106.202 l 0.7451753,-0.86817 H 7.519953 v 0.94051 h 0.2284102 z m -0.426848,-0.16537 v -0.69453 l -0.5963469,0.69453 z"
       id="text13-7-2"
       style="font-size:2.11667px;stroke-width:0.264583"
       aria-label="out4&#10;" />
    <circle
       style="display:inline;fill:#0000ff;fill-opacity:1;stroke-width:0.211072"
       id="path6-5-1-1-0-9"
       cx="5.364593"
       cy="111.42791"
       r="3.168119"
       inkscape:label="out4" />
    <circle
       style="display:inline;fill:#00ff00;fill-opacity:1;stroke-width:0.211072"
       id="clock"
       cx="5.0937204"
       cy="47.489185"
       r="3.168119"
       inkscape:label="clock" />
    <circle
       style="fill:#ff0000;fill-opacity:1;stroke-width:0.264583"
       id="divs"
       cx="5.1114388"
       cy="16.743362"
       r="4.4803967"
       inkscape:label="divs" />
    <circle
       style="display:inline;fill:#ff0000;fill-opacity:1;stroke-width:0.264583"
       id="speed"
       cx="5.156599"
       cy="33.269257"
       r="4.4803967"
       inkscape:label="speed" />
    <path
       d="m 3.1577871,27.332467 q 0,0.158131 -0.1312584,0.259416 -0.1302248,0.101286 -0.3565679,0.101286 -0.1281577,0 -0.2356449,-0.02997 -0.1064536,-0.03101 -0.1788007,-0.06718 v -0.218075 h 0.010335 q 0.091984,0.06925 0.204639,0.110587 0.1126548,0.04031 0.2160078,0.04031 0.1281577,0 0.2005049,-0.04134 0.072347,-0.04134 0.072347,-0.130225 0,-0.06821 -0.039274,-0.103353 -0.039274,-0.03514 -0.1508954,-0.05994 -0.041341,-0.0093 -0.1085207,-0.0217 -0.066146,-0.0124 -0.120923,-0.02687 -0.1519289,-0.04031 -0.2160078,-0.117822 -0.063045,-0.07855 -0.063045,-0.192237 0,-0.07131 0.028939,-0.134359 0.029972,-0.06305 0.089917,-0.112654 0.057878,-0.04858 0.1467613,-0.07648 0.089917,-0.02894 0.2005049,-0.02894 0.103353,0 0.2087731,0.02584 0.1064536,0.02481 0.1767336,0.06098 v 0.20774 h -0.010335 q -0.074414,-0.05478 -0.1808677,-0.09199 -0.1064537,-0.03824 -0.2087731,-0.03824 -0.1064537,0 -0.1798343,0.04134 -0.073381,0.04031 -0.073381,0.120923 0,0.07131 0.044442,0.107487 0.043408,0.03617 0.1405602,0.05891 0.053743,0.0124 0.1198895,0.02481 0.067179,0.0124 0.1116212,0.02274 0.1353925,0.03101 0.2087731,0.106453 0.073381,0.07648 0.073381,0.202572 z m 1.2939798,-0.258382 q 0,0.14056 -0.040308,0.257349 -0.040308,0.115755 -0.1136884,0.196371 -0.068213,0.07648 -0.1612307,0.118856 -0.091984,0.04134 -0.1953372,0.04134 -0.089917,0 -0.1632978,-0.01964 -0.072347,-0.01964 -0.1477948,-0.06098 v 0.483693 H 3.4358067 v -1.580268 h 0.1943037 v 0.120923 q 0.077515,-0.06511 0.1736331,-0.108521 0.097152,-0.04444 0.206706,-0.04444 0.2087731,0 0.3245285,0.158131 0.1167889,0.157096 0.1167889,0.437183 z m -0.2005048,0.0052 q 0,-0.208773 -0.071314,-0.312126 -0.071314,-0.103353 -0.2191084,-0.103353 -0.083716,0 -0.1684654,0.03617 -0.08475,0.03617 -0.1622643,0.09508 v 0.654224 q 0.082682,0.03721 0.1415936,0.05064 0.059945,0.01344 0.1353925,0.01344 0.1622643,0 0.2532149,-0.109554 0.090951,-0.109554 0.090951,-0.324529 z m 1.4696799,0.02894 H 4.8703466 q 0,0.106454 0.032039,0.186036 0.032039,0.07855 0.08785,0.129191 0.053744,0.04961 0.1271242,0.07441 0.074414,0.02481 0.1632978,0.02481 0.1178224,0 0.2366784,-0.04651 0.1198895,-0.04754 0.1705325,-0.09302 h 0.010335 v 0.211874 q -0.098185,0.04134 -0.2005049,0.06925 -0.1023195,0.02791 -0.2149743,0.02791 -0.2873214,0 -0.4485521,-0.15503 -0.1612307,-0.156063 -0.1612307,-0.442351 0,-0.283187 0.153996,-0.449585 0.1550295,-0.166399 0.4072109,-0.166399 0.2335779,0 0.3596685,0.136426 0.1271243,0.136426 0.1271243,0.387574 z M 5.5318059,26.959363 q -0.00103,-0.152962 -0.077515,-0.236678 -0.075448,-0.08372 -0.2304773,-0.08372 -0.156063,0 -0.2490808,0.09198 -0.091984,0.09198 -0.1043865,0.22841 z m 1.450043,0.148828 H 6.1312535 q 0,0.106454 0.03204,0.186036 0.032039,0.07855 0.08785,0.129191 0.053744,0.04961 0.1271242,0.07441 0.074414,0.02481 0.1632978,0.02481 0.1178225,0 0.2366784,-0.04651 0.1198895,-0.04754 0.1705325,-0.09302 h 0.010335 v 0.211874 q -0.098185,0.04134 -0.2005048,0.06925 -0.1023195,0.02791 -0.2149743,0.02791 -0.2873214,0 -0.4485521,-0.15503 -0.1612308,-0.156063 -0.1612308,-0.442351 0,-0.283187 0.1539961,-0.449585 0.1550295,-0.166399 0.4072109,-0.166399 0.2335778,0 0.3596685,0.136426 0.1271242,0.136426 0.1271242,0.387574 z m -0.189136,-0.148828 q -0.00103,-0.152962 -0.077515,-0.236678 -0.075448,-0.08372 -0.2304772,-0.08372 -0.1560631,0 -0.2490808,0.09198 -0.091984,0.09198 -0.1043866,0.22841 z m 1.4200706,0.705901 H 8.0184798 v -0.120923 q -0.083716,0.07235 -0.1746666,0.112655 -0.090951,0.04031 -0.1974043,0.04031 -0.2067061,0 -0.3286626,-0.159164 -0.1209231,-0.159164 -0.1209231,-0.441317 0,-0.146762 0.041341,-0.261484 0.042375,-0.114721 0.1136883,-0.195337 0.07028,-0.07855 0.1632978,-0.119889 0.094051,-0.04134 0.1943036,-0.04134 0.090951,0 0.1612307,0.01964 0.07028,0.0186 0.1477949,0.05891 V 26.057091 H 8.2127835 Z M 8.0184798,27.381043 V 26.71855 q -0.078548,-0.03514 -0.1405601,-0.04857 -0.062012,-0.01344 -0.1353925,-0.01344 -0.1632978,0 -0.2542484,0.113688 -0.090951,0.113688 -0.090951,0.322461 0,0.205673 0.07028,0.31316 0.07028,0.106454 0.2253095,0.106454 0.082683,0 0.1674319,-0.03617 0.08475,-0.03721 0.1581302,-0.09509 z"
       id="text12"
       style="font-size:2.11667px;stroke-width:0.264583"
       aria-label="speed" />
  </g>
  <path
     style="font-size:2.11667px;stroke-width:0.264583"
     d="m 3.5436972,43.121163 q -0.097152,0.04651 -0.1850019,0.07235 -0.086817,0.02584 -0.1850019,0.02584 -0.1250572,0 -0.2294437,-0.03617 Q 2.8398631,43.145973 2.7654489,43.071562 2.6900009,42.997152 2.64866,42.883459 2.607319,42.769771 2.607319,42.617842 q 0,-0.283187 0.1550295,-0.444418 0.1560631,-0.161231 0.4113451,-0.161231 0.099219,0 0.1943036,0.02791 0.096118,0.0279 0.1757002,0.06821 v 0.216008 h -0.010335 q -0.088884,-0.06925 -0.1839684,-0.106454 -0.094051,-0.03721 -0.1839684,-0.03721 -0.1653648,0 -0.2614831,0.111621 -0.095085,0.110588 -0.095085,0.325562 0,0.208773 0.093018,0.321428 0.094051,0.111621 0.2635502,0.111621 0.058911,0 0.1198895,-0.0155 0.060978,-0.0155 0.1095542,-0.04031 0.042375,-0.0217 0.079582,-0.04548 0.037207,-0.0248 0.058911,-0.04237 h 0.010335 z m 0.4454515,0.07235 H 3.794845 V 41.58534 h 0.1943037 z m 1.368394,-0.576709 q 0,0.282153 -0.1446942,0.445451 -0.1446943,0.163298 -0.3875739,0.163298 -0.2449466,0 -0.3896409,-0.163298 -0.1436607,-0.163298 -0.1436607,-0.445451 0,-0.282154 0.1436607,-0.445452 0.1446943,-0.164331 0.3896409,-0.164331 0.2428796,0 0.3875739,0.164331 0.1446942,0.163298 0.1446942,0.445452 z m -0.2005049,0 q 0,-0.224276 -0.08785,-0.332797 -0.08785,-0.109554 -0.2439132,-0.109554 -0.1581301,0 -0.2459802,0.109554 -0.086817,0.108521 -0.086817,0.332797 0,0.217041 0.08785,0.329696 0.08785,0.111621 0.2449466,0.111621 0.1550296,0 0.2428796,-0.110588 0.088884,-0.111621 0.088884,-0.330729 z m 1.3549583,0.504362 q -0.097152,0.04651 -0.1850019,0.07235 -0.086817,0.02584 -0.1850019,0.02584 -0.1250572,0 -0.2294437,-0.03617 -0.1043866,-0.03721 -0.1788008,-0.111621 -0.075448,-0.07441 -0.1167889,-0.188103 -0.041341,-0.113688 -0.041341,-0.265617 0,-0.283187 0.1550296,-0.444418 0.156063,-0.161231 0.411345,-0.161231 0.099219,0 0.1943037,0.02791 0.096118,0.0279 0.1757001,0.06821 v 0.216008 h -0.010335 q -0.088884,-0.06925 -0.1839684,-0.106454 -0.094051,-0.03721 -0.1839684,-0.03721 -0.1653648,0 -0.2614831,0.111621 -0.095085,0.110588 -0.095085,0.325562 0,0.208773 0.093018,0.321428 0.094051,0.111621 0.2635502,0.111621 0.058911,0 0.1198895,-0.0155 0.060978,-0.0155 0.1095542,-0.04031 0.042375,-0.0217 0.079582,-0.04548 0.037207,-0.0248 0.058911,-0.04237 h 0.010335 z m 1.2970802,0.07235 H 7.5527608 L 7.0897393,42.68812 6.9636486,42.80801 v 0.385506 H 6.7693449 v -1.608173 h 0.1943037 v 1.031464 l 0.5612069,-0.57775 H 7.7698022 L 7.2334,42.572359 Z"
     id="text10"
     aria-label="clock" />
  <text
     xml:space="preserve"
     style="font-size:2.11667px;text-align:start;writing-mode:lr-tb;direction:ltr;text-anchor:start;fill:#000000;fill-opacity:1;stroke-width:0.264583"
     x="2.8557692"
     y="11.244592"
     id="text11"><tspan
       sodipodi:role="line"
       id="tspan10"
       style="stroke-width:0.264583"
       x="2.8557692"
       y="11.244592">divs</tspan></text>
</svg>
