<?xml version="1.0" encoding="UTF-8" standalone="no"?>
<!-- Created with Inkscape (http://www.inkscape.org/) -->

<svg
   width="40.639999mm"
   height="128.5mm"
   viewBox="0 0 40.64 128.5"
   version="1.1"
   id="svg1"
   inkscape:version="1.4.2 (ebf0e940, 2025-05-08)"
   sodipodi:docname="FourPoleLPF.svg"
   xmlns:inkscape="http://www.inkscape.org/namespaces/inkscape"
   xmlns:sodipodi="http://sodipodi.sourceforge.net/DTD/sodipodi-0.dtd"
   xmlns="http://www.w3.org/2000/svg"
   xmlns:svg="http://www.w3.org/2000/svg">
  <sodipodi:namedview
     id="namedview1"
     pagecolor="#505050"
     bordercolor="#eeeeee"
     borderopacity="1"
     inkscape:showpageshadow="0"
     inkscape:pageopacity="0"
     inkscape:pagecheckerboard="0"
     inkscape:deskcolor="#505050"
     inkscape:document-units="mm"
     inkscape:zoom="2.096401"
     inkscape:cx="53.663397"
     inkscape:cy="225.38627"
     inkscape:window-width="2560"
     inkscape:window-height="1440"
     inkscape:window-x="0"
     inkscape:window-y="0"
     inkscape:window-maximized="0"
     inkscape:current-layer="layer2" />
  <defs
     id="defs1" />
  <g
     inkscape:label="Layer 1"
     inkscape:groupmode="layer"
     id="layer1">
    <rect
       style="fill:#ffffff;stroke-width:0.264583"
       id="rect1"
       width="40.639091"
       height="128.60632"
       x="0"
       y="0" />
    <path
       d="m 14.876737,17.804355 q -0.140137,0.04756 -0.254794,0.08918 -0.112105,0.04162 -0.295562,0.0872 -0.155425,0.03766 -0.338877,0.06342 -0.180904,0.02775 -0.400027,0.02775 -0.412768,0 -0.751646,-0.08918 -0.336328,-0.09117 -0.586027,-0.283407 -0.244603,-0.188278 -0.382192,-0.477631 -0.137589,-0.291335 -0.137589,-0.675817 0,-0.364664 0.132493,-0.652035 0.132494,-0.287371 0.382192,-0.485558 0.242055,-0.192242 0.58348,-0.293317 0.343973,-0.101075 0.761836,-0.101075 0.305754,0 0.608959,0.05747 0.305754,0.05747 0.677754,0.202151 v 0.465739 h -0.03822 q -0.313398,-0.204132 -0.621699,-0.29728 -0.308302,-0.09315 -0.659918,-0.09315 -0.287919,0 -0.519781,0.07333 -0.229316,0.07135 -0.41022,0.223951 -0.175809,0.14864 -0.275179,0.376555 -0.09682,0.225933 -0.09682,0.523214 0,0.311153 0.107014,0.535104 0.109564,0.223952 0.280274,0.364664 0.178357,0.146659 0.415315,0.218006 0.239507,0.06936 0.504493,0.06936 0.364357,0 0.68285,-0.09711 0.318493,-0.09711 0.59622,-0.291335 h 0.03567 z m 3.034605,0.214042 h -0.479014 v -0.245752 q -0.242056,0.14864 -0.463727,0.227915 -0.221671,0.07928 -0.489205,0.07928 -0.448439,0 -0.698137,-0.21206 -0.249699,-0.214047 -0.249699,-0.626276 v -1.436856 h 0.479013 v 1.260469 q 0,0.168459 0.02039,0.289353 0.02039,0.118913 0.08663,0.204133 0.06879,0.0872 0.178357,0.12684 0.109564,0.03964 0.318493,0.03964 0.186,0 0.405123,-0.07531 0.221671,-0.07531 0.412768,-0.192242 v -1.652879 h 0.479014 z m 2.42055,-0.01982 q -0.135042,0.02775 -0.295562,0.04558 -0.157974,0.01784 -0.282822,0.01784 -0.435699,0 -0.662467,-0.182333 -0.226767,-0.182331 -0.226767,-0.584651 v -1.17723 h -0.323589 v -0.313136 h 0.323589 v -0.63618 h 0.479014 v 0.63618 h 0.988604 v 0.313136 h -0.988604 v 1.008771 q 0,0.174405 0.0102,0.273498 0.0102,0.09711 0.07134,0.182333 0.05606,0.07927 0.152876,0.11693 0.09937,0.03567 0.300658,0.03567 0.117205,0 0.244603,-0.02576 0.127398,-0.02775 0.183452,-0.04558 h 0.02548 z m 3.004028,-1.086064 q 0,0.541051 -0.356712,0.854186 -0.356713,0.313135 -0.955481,0.313135 -0.603863,0 -0.960575,-0.313135 -0.354165,-0.313135 -0.354165,-0.854186 0,-0.54105 0.354165,-0.854186 0.356712,-0.315117 0.960575,-0.315117 0.598768,0 0.955481,0.315117 0.356712,0.313136 0.356712,0.854186 z m -0.494301,0 q 0,-0.430065 -0.216575,-0.638162 -0.216576,-0.210078 -0.601317,-0.210078 -0.389835,0 -0.60641,0.210078 -0.214028,0.208097 -0.214028,0.638162 0,0.416193 0.216575,0.632217 0.216576,0.214042 0.603863,0.214042 0.382192,0 0.598768,-0.212061 0.219124,-0.214041 0.219124,-0.634198 z m 2.76707,-1.617205 h -0.02548 q -0.07898,-0.01784 -0.206383,-0.03567 -0.127398,-0.01982 -0.22422,-0.01982 -0.308301,0 -0.448439,0.107021 -0.137589,0.105039 -0.137589,0.3825 v 0.07531 h 0.863754 v 0.313135 h -0.848466 v 1.900613 h -0.479012 v -1.900614 h -0.323592 v -0.313135 h 0.32359 v -0.07333 q 0,-0.394392 0.252246,-0.60447 0.252247,-0.21206 0.728713,-0.21206 0.160521,0 0.287918,0.01189 0.129945,0.01189 0.23696,0.02775 z m 1.834521,0 h -0.02548 q -0.07898,-0.01784 -0.206383,-0.03567 -0.127398,-0.01982 -0.224219,-0.01982 -0.308302,0 -0.448438,0.107021 -0.13759,0.105039 -0.13759,0.3825 v 0.07531 h 0.863754 v 0.313135 h -0.848467 v 1.900613 h -0.479012 v -1.900614 h -0.323591 v -0.313135 h 0.323589 v -0.07333 q 0,-0.394392 0.252248,-0.60447 0.252246,-0.21206 0.728711,-0.21206 0.160521,0 0.287919,0.01189 0.129946,0.01189 0.236959,0.02775 z"
       id="text1"
       style="font-size:4.60217px;fill:#1a1a1a;stroke-width:0.57527"
       aria-label="Cutoff" />
    <path
       d="m 18.229663,37.54088 h -0.01935 q -0.08123,-0.01508 -0.158588,-0.02111 -0.07543,-0.0075 -0.179861,-0.0075 -0.168257,0 -0.324911,0.0588 -0.156653,0.05729 -0.301702,0.149263 v 1.195604 h -0.36359 v -1.684098 h 0.36359 v 0.24877 q 0.216607,-0.135693 0.380997,-0.191478 0.166323,-0.05729 0.338447,-0.05729 0.09476,0 0.137314,0.0045 0.04255,0.003 0.127644,0.01357 z m 2.150597,0.562372 h -1.591674 q 0,0.155292 0.05995,0.271385 0.05996,0.114585 0.16439,0.188462 0.100562,0.07237 0.237881,0.108554 0.139247,0.03618 0.30557,0.03618 0.220475,0 0.442884,-0.06784 0.224343,-0.06936 0.319109,-0.135693 h 0.01934 v 0.309078 q -0.183729,0.0603 -0.375194,0.101015 -0.191465,0.0407 -0.402271,0.0407 -0.537648,0 -0.839351,-0.226154 -0.301702,-0.227663 -0.301702,-0.645295 0,-0.41311 0.288164,-0.655848 0.290099,-0.242739 0.761993,-0.242739 0.437081,0 0.673028,0.199016 0.237881,0.199015 0.237881,0.565386 z m -0.353921,-0.217109 q -0.0019,-0.22314 -0.145048,-0.345263 -0.141181,-0.122124 -0.43128,-0.122124 -0.292033,0 -0.466092,0.134186 -0.172126,0.134185 -0.195333,0.333201 z m 2.448433,0.544278 q 0,0.230678 -0.245616,0.378433 -0.243683,0.147754 -0.667227,0.147754 -0.239815,0 -0.44095,-0.04372 -0.199201,-0.04523 -0.334581,-0.098 v -0.318124 h 0.01934 q 0.172126,0.101016 0.382931,0.161324 0.210805,0.0588 0.404205,0.0588 0.239814,0 0.375193,-0.0603 0.13538,-0.0603 0.13538,-0.18997 0,-0.09951 -0.07349,-0.150769 -0.07349,-0.05126 -0.282362,-0.08745 -0.07736,-0.01357 -0.203069,-0.03166 -0.123775,-0.01809 -0.226277,-0.0392 -0.284297,-0.0588 -0.404204,-0.171878 -0.117974,-0.114585 -0.117974,-0.280431 0,-0.104032 0.05415,-0.196001 0.05609,-0.09197 0.168257,-0.164339 0.108309,-0.07087 0.274627,-0.111569 0.168257,-0.04221 0.375194,-0.04221 0.193399,0 0.390666,0.03769 0.199201,0.03618 0.330713,0.08895 v 0.303047 h -0.01935 q -0.139247,-0.07991 -0.338448,-0.134185 -0.199201,-0.05578 -0.390667,-0.05578 -0.199201,0 -0.336514,0.0603 -0.137313,0.0588 -0.137313,0.1764 0,0.104031 0.08317,0.156801 0.08123,0.05277 0.263022,0.08594 0.100574,0.01809 0.224344,0.03618 0.125708,0.01809 0.208871,0.03317 0.253353,0.04523 0.390666,0.155293 0.137313,0.111569 0.137313,0.295508 z"
       id="text1-1"
       style="font-size:3.49715px;fill:#1a1a1a;stroke-width:0.437143"
       aria-label="res&#10;" />
    <path
       d="m 7.5650561,62.531218 q -0.09088,0.03029 -0.165238,0.0568 -0.07271,0.02651 -0.191676,0.05554 -0.100797,0.02398 -0.219766,0.0404 -0.117319,0.01767 -0.259425,0.01767 -0.267684,0 -0.487451,-0.0568 -0.218115,-0.05806 -0.380048,-0.180511 -0.158629,-0.119919 -0.247857,-0.304218 -0.08923,-0.18556 -0.08923,-0.430449 0,-0.232266 0.08592,-0.415302 0.08592,-0.183035 0.247857,-0.309267 0.156976,-0.122444 0.378395,-0.186822 0.223071,-0.06438 0.494061,-0.06438 0.198286,0 0.394919,0.0366 0.198286,0.03661 0.439534,0.128757 v 0.296644 h -0.02478 q -0.203243,-0.130019 -0.403181,-0.189348 -0.199938,-0.05933 -0.427967,-0.05933 -0.186719,0 -0.337085,0.04671 -0.148715,0.04544 -0.266034,0.142642 -0.114011,0.09467 -0.178456,0.23984 -0.06279,0.143903 -0.06279,0.333251 0,0.198183 0.0694,0.340824 0.07105,0.142642 0.181762,0.232267 0.115667,0.09341 0.269338,0.138854 0.155323,0.04418 0.327171,0.04418 0.23629,0 0.442838,-0.06186 0.206547,-0.06185 0.386656,-0.18556 h 0.02313 z m 2.402561,-1.743257 -0.89559,1.879587 h -0.436229 l -0.89559,-1.879587 h 0.350304 l 0.771663,1.653633 0.771661,-1.653633 z"
       id="text1-1-2"
       style="font-size:2.9578px;fill:#1a1a1a;stroke-width:0.369724"
       aria-label="CV&#10;" />
    <path
       d="m 16.900986,99.544295 h -0.306178 v -0.281626 h 0.306178 z m -0.01733,1.883285 h -0.271517 v -1.613212 h 0.271517 z m 1.886175,0 h -0.271516 v -0.91853 q 0,-0.11121 -0.013,-0.20797 -0.013,-0.0982 -0.04766,-0.15309 -0.03611,-0.0607 -0.103986,-0.0895 -0.06788,-0.0303 -0.176197,-0.0303 -0.111206,0 -0.232522,0.0549 -0.121316,0.0549 -0.232522,0.14009 v 1.20449 h -0.271517 v -1.613212 h 0.271517 v 0.179085 q 0.127093,-0.105429 0.262851,-0.164643 0.135758,-0.05921 0.278738,-0.05921 0.261407,0 0.39861,0.157422 0.137202,0.157422 0.137202,0.453492 z"
       id="text1-1-2-6"
       style="font-size:2.9578px;fill:#1a1a1a;stroke-width:0.369724"
       transform="scale(1.1441189,0.87403503)"
       aria-label="in&#10;" />
    <path
       d="m 16.737267,120.11529 q 0,0.39428 -0.202193,0.62246 -0.202194,0.22819 -0.54159,0.22819 -0.342284,0 -0.544478,-0.22819 -0.200749,-0.22818 -0.200749,-0.62246 0,-0.39428 0.200749,-0.62247 0.202194,-0.22963 0.544478,-0.22963 0.339396,0 0.54159,0.22963 0.202193,0.22819 0.202193,0.62247 z m -0.280182,0 q 0,-0.3134 -0.12276,-0.46505 -0.122761,-0.15309 -0.340841,-0.15309 -0.220968,0 -0.343728,0.15309 -0.121316,0.15165 -0.121316,0.46505 0,0.30329 0.12276,0.46071 0.12276,0.15598 0.342284,0.15598 0.216636,0 0.339396,-0.15454 0.124205,-0.15597 0.124205,-0.46215 z m 2.03782,0.80588 h -0.271517 v -0.17908 q -0.137202,0.10832 -0.262851,0.16608 -0.125649,0.0578 -0.277294,0.0578 -0.254186,0 -0.395721,-0.15453 -0.141536,-0.15598 -0.141536,-0.45638 v -1.04707 h 0.271517 v 0.91853 q 0,0.12276 0.01155,0.21086 0.01155,0.0867 0.0491,0.14876 0.03899,0.0635 0.101097,0.0924 0.0621,0.0289 0.18053,0.0289 0.105429,0 0.229634,-0.0549 0.125648,-0.0549 0.233966,-0.14009 v -1.20449 h 0.271517 z m 1.372026,-0.0144 q -0.07654,0.0202 -0.167531,0.0332 -0.08954,0.013 -0.160311,0.013 -0.246965,0 -0.375502,-0.13287 -0.128537,-0.13287 -0.128537,-0.42605 v -0.85788 h -0.183418 v -0.22819 h 0.183418 v -0.4636 h 0.271517 v 0.4636 h 0.560364 v 0.22819 h -0.560364 v 0.73512 q 0,0.12709 0.0058,0.1993 0.0058,0.0708 0.04044,0.13287 0.03177,0.0578 0.08666,0.0852 0.05632,0.026 0.17042,0.026 0.06643,0 0.138647,-0.0188 0.07221,-0.0202 0.103985,-0.0332 h 0.01444 z"
       id="text1-1-2-6-3"
       style="font-size:2.9578px;fill:#1a1a1a;stroke-width:0.369724"
       transform="scale(1.1441189,0.87403503)"
       aria-label="out&#10;" />
    <path
       style="fill:#0000ff;stroke-width:1.43468"
       d="m 11.863586,67.521472 21.455421,-6.941458 v 0"
       id="path1" />
    <rect
       style="fill:#000000;stroke-width:0.228715"
       id="rect2"
       width="17.164337"
       height="0.12620835"
       x="11.358752"
       y="-67.900101"
       transform="scale(1,-1)" />
  </g>
  <g
     inkscape:groupmode="layer"
     id="layer2"
     inkscape:label="components">
    <ellipse
       style="fill:#ff0000;fill-opacity:1;stroke-width:0.0930197"
       id="CUT"
       cx="19.748951"
       cy="25.998922"
       rx="4.6041741"
       ry="4.6697102"
       inkscape:label="CUT" />
    <circle
       style="fill:#ff0000;stroke-width:0.0924144"
       id="RES"
       cx="19.712187"
       cy="47.833942"
       r="4.606606"
       inkscape:label="RES" />
    <ellipse
       style="fill:#ff0000;stroke-width:0.0635588"
       id="ATN"
       cx="32.720474"
       cy="67.803078"
       inkscape:label="ATN"
       rx="3.059"
       ry="3.2814181" />
    <ellipse
       style="fill:#00ff00;fill-opacity:1;stroke-width:0.0594995"
       id="CV"
       cx="7.7634377"
       cy="68.088272"
       inkscape:label="CV"
       rx="2.9660001"
       ry="2.9658971" />
    <circle
       style="fill:#00ff00;stroke-width:0.0594995;fill-opacity:1"
       id="IN"
       cx="20.302189"
       cy="93.12635"
       r="2.9658971"
       inkscape:label="MAIN" />
    <circle
       style="fill:#0000ff;stroke-width:0.0594995;fill-opacity:1"
       id="MAIN"
       cx="20.290022"
       cy="110.02773"
       r="2.9658971"
       inkscape:label="MAIN" />
  </g>
</svg>
