<?xml version="1.0" encoding="UTF-8" standalone="no"?>
<!-- Created with Inkscape (http://www.inkscape.org/) -->

<svg
   width="40.639999mm"
   height="128.5mm"
   viewBox="0 0 40.64 128.5"
   version="1.1"
   id="svg1"
   inkscape:version="1.4.2 (ebf0e940, 2025-05-08)"
   sodipodi:docname="OnePoleLPF.svg"
   xmlns:inkscape="http://www.inkscape.org/namespaces/inkscape"
   xmlns:sodipodi="http://sodipodi.sourceforge.net/DTD/sodipodi-0.dtd"
   xmlns="http://www.w3.org/2000/svg"
   xmlns:svg="http://www.w3.org/2000/svg">
  <sodipodi:namedview
     id="namedview1"
     pagecolor="#505050"
     bordercolor="#eeeeee"
     borderopacity="1"
     inkscape:showpageshadow="0"
     inkscape:pageopacity="0"
     inkscape:pagecheckerboard="0"
     inkscape:deskcolor="#505050"
     inkscape:document-units="mm"
     inkscape:zoom="2.096401"
     inkscape:cx="53.663397"
     inkscape:cy="225.62477"
     inkscape:window-width="2560"
     inkscape:window-height="1387"
     inkscape:window-x="0"
     inkscape:window-y="25"
     inkscape:window-maximized="0"
     inkscape:current-layer="layer2" />
  <defs
     id="defs1" />
  <g
     inkscape:label="Layer 1"
     inkscape:groupmode="layer"
     id="layer1">
    <rect
       style="fill:#e6e6e6;stroke-width:0.264583"
       id="rect1"
       width="40.639091"
       height="128.60632"
       x="0"
       y="0" />
    <path
       d="m 13.677035,7.737687 q -0.123593,0.053932 -0.224715,0.1011219 -0.09887,0.04719 -0.26067,0.098875 -0.137076,0.042696 -0.298871,0.071909 -0.159548,0.03146 -0.352803,0.03146 -0.364039,0 -0.662911,-0.1011219 Q 11.580441,7.8365618 11.36022,7.6185879 11.144493,7.4051083 11.023147,7.0770239 10.901801,6.7466924 10.901801,6.3107447 q 0,-0.4134762 0.116852,-0.7393135 Q 11.135505,5.245594 11.355726,5.0208787 11.569205,4.8029048 11.870324,4.6883 12.17369,4.5736952 12.542223,4.5736952 q 0.269658,0 0.537069,0.065167 0.269659,0.065167 0.597743,0.2292096 v 0.5280811 h -0.03371 q -0.2764,-0.2314568 -0.548305,-0.337073 -0.271906,-0.1056162 -0.582013,-0.1056162 -0.253929,0 -0.458419,0.083145 -0.202244,0.080898 -0.361792,0.2539284 -0.155054,0.1685365 -0.242693,0.4269591 -0.08539,0.2561755 -0.08539,0.5932485 0,0.352803 0.09438,0.6067314 0.09663,0.2539283 0.247187,0.4134762 0.157301,0.1662893 0.366286,0.2471868 0.211232,0.07865 0.444936,0.07865 0.321343,0 0.602237,-0.1101105 0.280894,-0.1101105 0.525834,-0.3303315 h 0.03146 z m 2.67636,0.2426926 H 15.93093 v -0.278647 q -0.21348,0.1685365 -0.408982,0.2584226 -0.195502,0.089886 -0.431453,0.089886 -0.395499,0 -0.61572,-0.2404454 Q 14.254554,7.5669034 14.254554,7.0994955 V 5.4703093 h 0.422464 v 1.4291895 q 0,0.1910081 0.01798,0.3280844 0.01798,0.1348292 0.0764,0.2314568 0.06067,0.098875 0.157301,0.1438178 0.09663,0.044943 0.280894,0.044943 0.164042,0 0.357297,-0.085392 0.195502,-0.085392 0.364039,-0.2179739 V 5.4703093 h 0.422465 z m 2.134796,-0.022472 q -0.1191,0.03146 -0.26067,0.051685 -0.139324,0.020224 -0.249434,0.020224 -0.384263,0 -0.58426,-0.2067382 Q 17.19383,7.6163407 17.19383,7.1601686 V 5.8253596 H 16.908442 V 5.4703093 H 17.19383 V 4.7489731 h 0.422465 v 0.7213362 h 0.871896 v 0.3550503 h -0.871896 v 1.143801 q 0,0.1977495 0.009,0.3101071 0.009,0.1101106 0.06292,0.2067382 0.04944,0.089886 0.134829,0.132582 0.08764,0.040449 0.265164,0.040449 0.103369,0 0.215727,-0.029213 0.112358,-0.03146 0.161795,-0.051685 h 0.02247 z m 2.649393,-1.23144 q 0,0.6134729 -0.314601,0.9685231 -0.314602,0.3550502 -0.842683,0.3550502 -0.532575,0 -0.847176,-0.3550502 -0.312355,-0.3550502 -0.312355,-0.9685231 0,-0.6134728 0.312355,-0.968523 0.314601,-0.3572974 0.847176,-0.3572974 0.528081,0 0.842683,0.3572974 0.314601,0.3550502 0.314601,0.968523 z m -0.435947,0 q 0,-0.4876322 -0.191008,-0.7235833 -0.191008,-0.2381983 -0.530329,-0.2381983 -0.343814,0 -0.534822,0.2381983 -0.188761,0.2359511 -0.188761,0.7235833 0,0.4719022 0.191008,0.7168419 0.191008,0.2426926 0.532575,0.2426926 0.337073,0 0.528081,-0.2404454 0.193256,-0.2426926 0.193256,-0.7190891 z m 2.440408,-1.8336771 h -0.02247 q -0.06966,-0.020224 -0.182019,-0.040449 -0.112358,-0.022472 -0.19775,-0.022472 -0.271905,0 -0.395499,0.1213463 -0.121346,0.1190991 -0.121346,0.4337006 v 0.085392 h 0.761785 v 0.3550503 h -0.748302 v 2.15502 h -0.422465 v -2.15502 H 21.528588 V 5.4703093 h 0.285389 v -0.083145 q 0,-0.4471836 0.222468,-0.6853818 0.222468,-0.2404454 0.642686,-0.2404454 0.141571,0 0.253928,0.013483 0.114605,0.013483 0.208986,0.03146 z m 1.61795,0 h -0.02247 q -0.06966,-0.020224 -0.182019,-0.040449 -0.112358,-0.022472 -0.197749,-0.022472 -0.271906,0 -0.395499,0.1213463 -0.121347,0.1190991 -0.121347,0.4337006 v 0.085392 h 0.761785 v 0.3550503 h -0.748302 v 2.15502 h -0.422465 v -2.15502 H 23.146539 V 5.4703093 h 0.285388 v -0.083145 q 0,-0.4471836 0.222469,-0.6853818 0.222468,-0.2404454 0.642685,-0.2404454 0.141571,0 0.253929,0.013483 0.114605,0.013483 0.208985,0.03146 z"
       id="text1"
       style="font-size:4.60217px;fill:#1a1a1a;stroke-width:0.57527"
       transform="scale(1.1338553,0.88194675)"
       aria-label="Cutoff" />
    <path
       d="m 16.65282,52.524073 h -0.01708 q -0.07172,-0.01708 -0.140023,-0.02391 -0.0666,-0.0085 -0.158806,-0.0085 -0.148561,0 -0.286876,0.0666 -0.138315,0.06489 -0.266384,0.169052 v 1.354121 h -0.321028 v -1.907381 h 0.321028 v 0.281753 q 0.19125,-0.153684 0.336396,-0.216865 0.146853,-0.06489 0.298828,-0.06489 0.08367,0 0.121239,0.0051 0.03757,0.0034 0.112702,0.01537 z m 1.898843,0.636933 h -1.405349 q 0,0.175882 0.05293,0.307366 0.05294,0.129777 0.145146,0.213449 0.08879,0.08197 0.210034,0.122947 0.122946,0.04098 0.269799,0.04098 0.194666,0 0.391039,-0.07684 0.198081,-0.07855 0.281753,-0.153684 h 0.01708 v 0.350057 q -0.162222,0.0683 -0.331273,0.114408 -0.169052,0.0461 -0.35518,0.0461 -0.47471,0 -0.741095,-0.256138 -0.266384,-0.257847 -0.266384,-0.73085 0,-0.467881 0.254431,-0.742803 0.256139,-0.274922 0.672792,-0.274922 0.385915,0 0.594242,0.225402 0.210034,0.225402 0.210034,0.640347 z m -0.31249,-0.245894 q -0.0017,-0.252724 -0.128069,-0.391039 -0.124654,-0.138315 -0.380793,-0.138315 -0.257847,0 -0.41153,0.151976 -0.151976,0.151976 -0.172467,0.377378 z m 2.161813,0.616441 q 0,0.261262 -0.216864,0.428606 -0.215157,0.167344 -0.58912,0.167344 -0.211741,0 -0.389331,-0.04952 -0.175882,-0.05123 -0.295414,-0.110994 v -0.360302 h 0.01708 q 0.151976,0.114409 0.338104,0.182713 0.186127,0.0666 0.356887,0.0666 0.211741,0 0.331272,-0.0683 0.119532,-0.0683 0.119532,-0.215157 0,-0.112701 -0.06489,-0.170759 -0.06489,-0.05806 -0.249308,-0.09904 -0.0683,-0.01537 -0.179297,-0.03586 -0.109286,-0.02049 -0.199789,-0.0444 -0.251016,-0.0666 -0.356887,-0.194666 -0.104163,-0.129777 -0.104163,-0.317612 0,-0.117824 0.04781,-0.221987 0.04952,-0.104163 0.14856,-0.186128 0.09563,-0.08026 0.242479,-0.126361 0.14856,-0.04781 0.331273,-0.04781 0.170759,0 0.344933,0.04269 0.175882,0.04098 0.291999,0.100748 v 0.343226 h -0.01708 q -0.122947,-0.0905 -0.298829,-0.151976 -0.175882,-0.06318 -0.344934,-0.06318 -0.175882,0 -0.297121,0.0683 -0.121239,0.0666 -0.121239,0.199788 0,0.117824 0.07343,0.17759 0.07172,0.05977 0.232232,0.09733 0.0888,0.02049 0.198081,0.04098 0.110993,0.02049 0.18442,0.03757 0.223695,0.05123 0.344934,0.175882 0.121239,0.126362 0.121239,0.334688 z"
       id="text1-1"
       style="font-size:3.49715px;fill:#1a1a1a;stroke-width:0.437143"
       transform="scale(1.1325832,0.88293734)"
       aria-label="res&#10;" />
    <path
       d="m 17.532867,81.795362 q -0.07943,0.03466 -0.144424,0.06499 -0.06355,0.03033 -0.167532,0.06355 -0.0881,0.02744 -0.192083,0.04622 -0.102541,0.02022 -0.226746,0.02022 -0.233966,0 -0.42605,-0.06499 -0.19064,-0.06643 -0.332175,-0.206526 -0.138647,-0.137202 -0.216636,-0.348061 -0.07799,-0.212303 -0.07799,-0.492485 0,-0.26574 0.0751,-0.475155 0.0751,-0.209414 0.216636,-0.353838 0.137202,-0.140091 0.33073,-0.213747 0.194972,-0.07366 0.431827,-0.07366 0.173309,0 0.345173,0.04188 0.173309,0.04188 0.384168,0.147313 v 0.339396 h -0.02166 q -0.177641,-0.148757 -0.352394,-0.216636 -0.174753,-0.06788 -0.374058,-0.06788 -0.163199,0 -0.294624,0.05344 -0.129982,0.05199 -0.232523,0.163199 -0.09965,0.108317 -0.155977,0.274405 -0.05488,0.164643 -0.05488,0.381279 0,0.226745 0.06066,0.389944 0.0621,0.163199 0.158866,0.26574 0.101097,0.106874 0.235411,0.158866 0.135758,0.05055 0.285959,0.05055 0.206526,0 0.387056,-0.07077 0.180529,-0.07077 0.337951,-0.212303 h 0.02022 z m 2.099922,-1.994493 -0.782777,2.150471 h -0.381279 l -0.782777,-2.150471 h 0.306178 l 0.67446,1.891952 0.674459,-1.891952 z"
       id="text1-1-2"
       style="font-size:2.9578px;fill:#1a1a1a;stroke-width:0.369724"
       transform="scale(1.1441189,0.87403503)"
       aria-label="CV&#10;" />
    <path
       d="m 16.900986,99.544295 h -0.306178 v -0.281626 h 0.306178 z m -0.01733,1.883285 h -0.271517 v -1.613212 h 0.271517 z m 1.886175,0 h -0.271516 v -0.91853 q 0,-0.11121 -0.013,-0.20797 -0.013,-0.0982 -0.04766,-0.15309 -0.03611,-0.0607 -0.103986,-0.0895 -0.06788,-0.0303 -0.176197,-0.0303 -0.111206,0 -0.232522,0.0549 -0.121316,0.0549 -0.232522,0.14009 v 1.20449 h -0.271517 v -1.613212 h 0.271517 v 0.179085 q 0.127093,-0.105429 0.262851,-0.164643 0.135758,-0.05921 0.278738,-0.05921 0.261407,0 0.39861,0.157422 0.137202,0.157422 0.137202,0.453492 z"
       id="text1-1-2-6"
       style="font-size:2.9578px;fill:#1a1a1a;stroke-width:0.369724"
       transform="scale(1.1441189,0.87403503)"
       aria-label="in&#10;" />
    <path
       d="m 16.737267,120.11529 q 0,0.39428 -0.202193,0.62246 -0.202194,0.22819 -0.54159,0.22819 -0.342284,0 -0.544478,-0.22819 -0.200749,-0.22818 -0.200749,-0.62246 0,-0.39428 0.200749,-0.62247 0.202194,-0.22963 0.544478,-0.22963 0.339396,0 0.54159,0.22963 0.202193,0.22819 0.202193,0.62247 z m -0.280182,0 q 0,-0.3134 -0.12276,-0.46505 -0.122761,-0.15309 -0.340841,-0.15309 -0.220968,0 -0.343728,0.15309 -0.121316,0.15165 -0.121316,0.46505 0,0.30329 0.12276,0.46071 0.12276,0.15598 0.342284,0.15598 0.216636,0 0.339396,-0.15454 0.124205,-0.15597 0.124205,-0.46215 z m 2.03782,0.80588 h -0.271517 v -0.17908 q -0.137202,0.10832 -0.262851,0.16608 -0.125649,0.0578 -0.277294,0.0578 -0.254186,0 -0.395721,-0.15453 -0.141536,-0.15598 -0.141536,-0.45638 v -1.04707 h 0.271517 v 0.91853 q 0,0.12276 0.01155,0.21086 0.01155,0.0867 0.0491,0.14876 0.03899,0.0635 0.101097,0.0924 0.0621,0.0289 0.18053,0.0289 0.105429,0 0.229634,-0.0549 0.125648,-0.0549 0.233966,-0.14009 v -1.20449 h 0.271517 z m 1.372026,-0.0144 q -0.07654,0.0202 -0.167531,0.0332 -0.08954,0.013 -0.160311,0.013 -0.246965,0 -0.375502,-0.13287 -0.128537,-0.13287 -0.128537,-0.42605 v -0.85788 h -0.183418 v -0.22819 h 0.183418 v -0.4636 h 0.271517 v 0.4636 h 0.560364 v 0.22819 h -0.560364 v 0.73512 q 0,0.12709 0.0058,0.1993 0.0058,0.0708 0.04044,0.13287 0.03177,0.0578 0.08666,0.0852 0.05632,0.026 0.17042,0.026 0.06643,0 0.138647,-0.0188 0.07221,-0.0202 0.103985,-0.0332 h 0.01444 z"
       id="text1-1-2-6-3"
       style="font-size:2.9578px;fill:#1a1a1a;stroke-width:0.369724"
       transform="scale(1.1441189,0.87403503)"
       aria-label="out&#10;" />
  </g>
  <g
     inkscape:groupmode="layer"
     id="layer2"
     inkscape:label="components">
    <ellipse
       style="fill:#ff0000;fill-opacity:1;stroke-width:0.325348"
       id="CUTOFF"
       cx="20.256443"
       cy="25.052359"
       rx="16.218"
       ry="16.217775"
       inkscape:label="CUTOFF" />
    <circle
       style="fill:#ff0000;stroke-width:0.141786"
       id="RES"
       cx="20.153917"
       cy="56.100586"
       r="7.0676689"
       inkscape:label="RES" />
    <ellipse
       style="fill:#00ff00;fill-opacity:1;stroke-width:0.0594995"
       id="CV"
       cx="20.131857"
       cy="76.418022"
       inkscape:label="CV"
       rx="2.9660001"
       ry="2.9658971" />
    <circle
       style="fill:#00ff00;stroke-width:0.0594995;fill-opacity:1"
       id="IN"
       cx="20.302189"
       cy="93.12635"
       r="2.9658971"
       inkscape:label="IN" />
    <circle
       style="fill:#0000ff;stroke-width:0.0594995;fill-opacity:1"
       id="OUT"
       cx="20.290022"
       cy="110.02773"
       r="2.9658971"
       inkscape:label="OUT" />
  </g>
</svg>
